<svg width="24" height="24" viewBox="0 0 24 24" fill="none" xmlns="http://www.w3.org/2000/svg">
<path d="M21.0001 11.3211V19.9893C20.9999 20.2611 20.9263 20.5278 20.7869 20.7613C20.6475 20.9947 20.4477 21.1861 20.2085 21.3152C19.9917 21.4325 19.7486 21.4924 19.5022 21.4892H14.9968C14.7979 21.4892 14.6071 21.4102 14.4665 21.2695C14.3258 21.1289 14.2468 20.9381 14.2468 20.7392V16.2385C14.2468 16.0396 14.1678 15.8488 14.0271 15.7082C13.8865 15.5675 13.6957 15.4885 13.4968 15.4885H10.4968C10.2979 15.4885 10.1071 15.5675 9.96649 15.7082C9.82584 15.8488 9.74682 16.0396 9.74682 16.2385V20.7392C9.74682 20.9381 9.6678 21.1289 9.52715 21.2695C9.3865 21.4102 9.19573 21.4892 8.99682 21.4892H4.50029C4.28764 21.4897 4.07732 21.4448 3.88345 21.3575C3.68957 21.2701 3.5166 21.1423 3.37613 20.9826C3.12955 20.6975 2.9958 20.3319 3.0001 19.955V11.3211C3.00026 11.1121 3.04401 10.9054 3.12855 10.7143C3.21309 10.5232 3.33655 10.3518 3.49107 10.2111L10.9904 3.39234C11.2659 3.14001 11.6259 3.00003 11.9995 3C12.373 2.99997 12.733 3.13987 13.0086 3.39215L20.5092 10.2111C20.6637 10.3519 20.7871 10.5233 20.8717 10.7144C20.9562 10.9055 20.9999 11.1122 21.0001 11.3211Z" fill="white"/>
</svg>
